<svg width="24.000000" height="24.000000" viewBox="0 0 24 24" fill="none" xmlns="http://www.w3.org/2000/svg" xmlns:xlink="http://www.w3.org/1999/xlink">
	<desc>
			Created with Pixso.
	</desc>
	<defs>
		<clipPath id="clip57_3831">
			<rect id="icon / add link" width="24.000000" height="24.000000" fill="white" fill-opacity="0"/>
		</clipPath>
	</defs>
	<rect id="icon / add link" width="24.000000" height="24.000000" fill="#FFFFFF" fill-opacity="0"/>
	<g clip-path="url(#clip57_3831)">
		<path id="Vector" d="M10.64 12.3C10.73 12.42 10.77 12.56 10.76 12.7C10.75 12.84 10.69 12.98 10.59 13.08C10.49 13.18 10.35 13.24 10.21 13.25C10.07 13.26 9.93 13.22 9.81 13.13C9.53 12.87 9.3 12.55 9.15 12.19C8.99 11.83 8.91 11.45 8.91 11.06C8.91 10.67 8.99 10.28 9.15 9.93C9.3 9.57 9.53 9.25 9.81 8.98L11.89 6.85C12.45 6.3 13.21 6 13.99 6C14.78 6 15.53 6.3 16.1 6.85C16.64 7.41 16.95 8.17 16.95 8.95C16.95 9.74 16.64 10.49 16.1 11.06L15.21 11.95C15.22 11.46 15.14 10.98 14.97 10.52L15.27 10.23C15.58 9.88 15.76 9.42 15.76 8.95C15.76 8.48 15.58 8.03 15.27 7.68C14.92 7.36 14.46 7.19 13.99 7.19C13.52 7.19 13.07 7.36 12.72 7.68L10.64 9.81C10.47 9.97 10.34 10.17 10.25 10.38C10.16 10.59 10.11 10.82 10.11 11.06C10.11 11.29 10.16 11.52 10.25 11.74C10.34 11.95 10.47 12.14 10.64 12.3ZM18 15.03L18 16.22L16.22 16.22L16.22 18L15.03 18L15.03 16.22L13.25 16.22L13.25 15.03L15.03 15.03L15.03 13.25L16.22 13.25L16.22 15.03L18 15.03ZM13.96 12.48C14.07 12 14.04 11.51 13.9 11.04C13.75 10.57 13.49 10.15 13.13 9.81C13.02 9.73 12.88 9.69 12.74 9.7C12.59 9.71 12.46 9.77 12.36 9.87C12.26 9.97 12.2 10.1 12.19 10.25C12.18 10.39 12.22 10.53 12.3 10.64C12.47 10.8 12.61 11 12.7 11.21C12.79 11.42 12.84 11.66 12.84 11.89C12.84 12.12 12.79 12.35 12.7 12.57C12.61 12.78 12.47 12.97 12.3 13.13L10.23 15.27C9.88 15.58 9.42 15.76 8.95 15.76C8.48 15.76 8.03 15.58 7.68 15.27C7.36 14.92 7.19 14.46 7.19 13.99C7.19 13.52 7.36 13.07 7.68 12.72L7.97 12.48C7.81 12 7.73 11.5 7.74 11L6.85 11.89C6.3 12.45 6 13.21 6 13.99C6 14.78 6.3 15.53 6.85 16.1C7.41 16.64 8.17 16.95 8.95 16.95C9.74 16.95 10.49 16.64 11.06 16.1L12.12 15.03C12.22 14.49 12.43 13.98 12.75 13.54C13.07 13.1 13.48 12.74 13.96 12.48Z" fill="#3A3A3A" fill-opacity="1.000000" fill-rule="nonzero"/>
		<path id="Vector" d="M10.76 12.7C10.75 12.84 10.69 12.98 10.59 13.08C10.49 13.18 10.35 13.24 10.21 13.25C10.07 13.26 9.93 13.22 9.81 13.13C9.53 12.87 9.3 12.55 9.15 12.19C8.99 11.83 8.91 11.45 8.91 11.06C8.91 10.67 8.99 10.28 9.15 9.93C9.3 9.57 9.53 9.25 9.81 8.98L11.89 6.85C12.45 6.3 13.21 6 13.99 6C14.78 6 15.53 6.3 16.1 6.85C16.64 7.41 16.95 8.17 16.95 8.95C16.95 9.74 16.64 10.49 16.1 11.06L15.21 11.95C15.22 11.46 15.14 10.98 14.97 10.52L15.27 10.23C15.58 9.88 15.76 9.42 15.76 8.95C15.76 8.48 15.58 8.03 15.27 7.68C14.92 7.36 14.46 7.19 13.99 7.19C13.52 7.19 13.07 7.36 12.72 7.68L10.64 9.81C10.47 9.97 10.34 10.17 10.25 10.38C10.16 10.59 10.11 10.82 10.11 11.06C10.11 11.29 10.16 11.52 10.25 11.74C10.34 11.95 10.47 12.14 10.64 12.3C10.73 12.42 10.77 12.56 10.76 12.7ZM18 15.03L18 16.22L16.22 16.22L16.22 18L15.03 18L15.03 16.22L13.25 16.22L13.25 15.03L15.03 15.03L15.03 13.25L16.22 13.25L16.22 15.03M13.9 11.04C13.75 10.57 13.49 10.15 13.13 9.81C13.02 9.73 12.88 9.69 12.74 9.7C12.59 9.71 12.46 9.77 12.36 9.87C12.26 9.97 12.2 10.1 12.19 10.25C12.18 10.39 12.22 10.53 12.3 10.64C12.47 10.8 12.61 11 12.7 11.21C12.79 11.42 12.84 11.66 12.84 11.89C12.84 12.12 12.79 12.35 12.7 12.57C12.61 12.78 12.47 12.97 12.3 13.13L10.23 15.27C9.88 15.58 9.42 15.76 8.95 15.76C8.48 15.76 8.03 15.58 7.68 15.27C7.36 14.92 7.19 14.46 7.19 13.99C7.19 13.52 7.36 13.07 7.68 12.72L7.97 12.48C7.81 12 7.73 11.5 7.74 11L6.85 11.89C6.3 12.45 6 13.21 6 13.99C6 14.78 6.3 15.53 6.85 16.1C7.41 16.64 8.17 16.95 8.95 16.95C9.74 16.95 10.49 16.64 11.06 16.1L12.12 15.03C12.22 14.49 12.43 13.98 12.75 13.54C13.07 13.1 13.48 12.74 13.96 12.48C14.07 12 14.04 11.51 13.9 11.04Z" stroke="#3A3A3A" stroke-opacity="1.000000" stroke-width="0.500000"/>
	</g>
</svg>
