<svg width="12.000000" height="12.000000" viewBox="0 0 12 12" fill="none" xmlns="http://www.w3.org/2000/svg" xmlns:xlink="http://www.w3.org/1999/xlink">
	<desc>
			Created with Pixso.
	</desc>
	<defs>
		<clipPath id="clip138_2311">
			<rect id="icon / strategy" width="12.000000" height="12.000000" fill="white" fill-opacity="0"/>
		</clipPath>
	</defs>
	<rect id="icon / strategy" width="12.000000" height="12.000000" fill="#FFFFFF" fill-opacity="0"/>
	<g clip-path="url(#clip138_2311)">
		<path id="Vector" d="M3.75 3.13L4.77 4.14L4.14 4.77L3.13 3.75L2.12 4.77L1.5 4.14L2.51 3.13L1.5 2.12L2.12 1.5L3.13 2.51L4.14 1.5L4.77 2.12L3.75 3.13ZM10.5 7.85L9.87 7.22L8.86 8.24L7.85 7.22L7.22 7.85L8.24 8.86L7.22 9.87L7.85 10.5L8.86 9.48L9.87 10.5L10.5 9.87L9.48 8.86L10.5 7.85ZM9.7 3.72L8.28 5.55L7.58 4.99L8.1 4.33C7.44 4.47 6.83 4.76 6.31 5.2C5.8 5.63 5.4 6.18 5.16 6.81C5.55 7.09 5.82 7.49 5.93 7.95C6.04 8.41 5.98 8.9 5.77 9.32C5.56 9.74 5.2 10.07 4.76 10.25C4.33 10.43 3.84 10.45 3.39 10.31C2.94 10.16 2.56 9.86 2.31 9.45C2.06 9.05 1.97 8.57 2.04 8.1C2.12 7.64 2.36 7.21 2.72 6.91C3.08 6.6 3.54 6.43 4.01 6.44C4.13 6.44 4.24 6.45 4.36 6.47C4.66 5.71 5.15 5.04 5.78 4.52C6.4 3.99 7.15 3.63 7.95 3.47L7.32 2.99L7.88 2.29L9.7 3.72ZM5.11 8.42C5.11 8.2 5.05 7.99 4.93 7.81C4.81 7.63 4.63 7.48 4.43 7.4C4.23 7.32 4.01 7.3 3.8 7.34C3.58 7.38 3.39 7.49 3.23 7.64C3.08 7.79 2.97 7.99 2.93 8.2C2.89 8.42 2.91 8.64 2.99 8.84C3.08 9.04 3.22 9.21 3.4 9.34C3.58 9.46 3.79 9.52 4.01 9.52C4.3 9.52 4.58 9.4 4.79 9.2C5 8.99 5.11 8.71 5.11 8.42Z" fill="#3A3A3A" fill-opacity="1.000000" fill-rule="nonzero"/>
	</g>
</svg>
