<svg width="25.000000" height="25.000000" viewBox="0 0 25 25" fill="none" xmlns="http://www.w3.org/2000/svg" xmlns:xlink="http://www.w3.org/1999/xlink">
	<desc>
			Created with Pixso.
	</desc>
	<defs>
		<clipPath id="clip64_1119">
			<rect id="Bold" width="25.000000" height="25.000000" fill="white" fill-opacity="0"/>
		</clipPath>
	</defs>
	<rect id="Bold" width="25.000000" height="25.000000" fill="#FFFFFF" fill-opacity="0"/>
	<g clip-path="url(#clip64_1119)">
		<path id="Vector" d="M16.25 11.23C17.26 10.54 17.96 9.39 17.96 8.33C17.96 5.97 16.14 4.16 13.8 4.16L7.29 4.16L7.29 18.75L14.62 18.75C16.8 18.75 18.48 16.97 18.48 14.8C18.48 13.21 17.59 11.86 16.25 11.23ZM10.41 6.77L13.54 6.77C14.4 6.77 15.1 7.46 15.1 8.33C15.1 9.19 14.4 9.89 13.54 9.89L10.41 9.89L10.41 6.77ZM14.06 16.14L10.41 16.14L10.41 13.02L14.06 13.02C14.92 13.02 15.62 13.71 15.62 14.58C15.62 15.44 14.92 16.14 14.06 16.14Z" fill="#3A3A3A" fill-opacity="1.000000" fill-rule="nonzero"/>
	</g>
</svg>
