<svg width="25.000000" height="25.000000" viewBox="0 0 25 25" fill="none" xmlns="http://www.w3.org/2000/svg" xmlns:xlink="http://www.w3.org/1999/xlink">
	<desc>
			Created with Pixso.
	</desc>
	<defs>
		<clipPath id="clip64_1131">
			<rect id="булеты" width="25.000000" height="25.000000" fill="white" fill-opacity="0"/>
		</clipPath>
	</defs>
	<rect id="булеты" width="25.000000" height="25.000000" fill="#FFFFFF" fill-opacity="0"/>
	<g clip-path="url(#clip64_1131)">
		<path id="Vector" d="M5.38 11.18C4.66 11.18 4.08 11.76 4.08 12.48C4.08 13.2 4.66 13.78 5.38 13.78C6.09 13.78 6.67 13.2 6.67 12.48C6.67 11.76 6.09 11.18 5.38 11.18ZM5.38 6C4.66 6 4.08 6.57 4.08 7.29C4.08 8.01 4.66 8.59 5.38 8.59C6.09 8.59 6.67 8.01 6.67 7.29C6.67 6.57 6.09 6 5.38 6ZM5.38 16.37C4.66 16.37 4.08 16.96 4.08 17.67C4.08 18.38 4.67 18.97 5.38 18.97C6.08 18.97 6.67 18.38 6.67 17.67C6.67 16.96 6.09 16.37 5.38 16.37ZM8.83 18.54L19.21 18.54C19.69 18.54 20.08 18.15 20.08 17.67C20.08 17.2 19.69 16.81 19.21 16.81L8.83 16.81C8.36 16.81 7.97 17.2 7.97 17.67C7.97 18.15 8.36 18.54 8.83 18.54ZM8.83 13.35L19.21 13.35C19.69 13.35 20.08 12.96 20.08 12.48C20.08 12.01 19.69 11.62 19.21 11.62L8.83 11.62C8.36 11.62 7.97 12.01 7.97 12.48C7.97 12.96 8.36 13.35 8.83 13.35ZM7.97 7.29C7.97 7.77 8.36 8.16 8.83 8.16L19.21 8.16C19.69 8.16 20.08 7.77 20.08 7.29C20.08 6.82 19.69 6.43 19.21 6.43L8.83 6.43C8.36 6.43 7.97 6.82 7.97 7.29Z" fill="#3A3A3A" fill-opacity="1.000000" fill-rule="nonzero"/>
	</g>
</svg>
