<svg width="12.000000" height="12.000000" viewBox="0 0 12 12" fill="none" xmlns="http://www.w3.org/2000/svg" xmlns:xlink="http://www.w3.org/1999/xlink">
	<desc>
			Created with Pixso.
	</desc>
	<defs>
		<clipPath id="clip138_2396">
			<rect id="icon /visible" width="12.000000" height="12.000000" fill="white" fill-opacity="0"/>
		</clipPath>
	</defs>
	<rect id="icon /visible" width="12.000000" height="12.000000" fill="#FFFFFF" fill-opacity="0"/>
	<g clip-path="url(#clip138_2396)">
		<path id="Vector" d="M6 4.5C6.39 4.5 6.77 4.65 7.06 4.93C7.34 5.22 7.5 5.6 7.5 6C7.5 6.39 7.34 6.77 7.06 7.06C6.77 7.34 6.39 7.5 6 7.5C5.6 7.5 5.22 7.34 4.93 7.06C4.65 6.77 4.5 6.39 4.5 6C4.5 5.6 4.65 5.22 4.93 4.93C5.22 4.65 5.6 4.5 6 4.5ZM6 2.25C8.5 2.25 10.63 3.8 11.5 6C10.63 8.19 8.5 9.75 6 9.75C3.5 9.75 1.36 8.19 0.5 6C1.36 3.8 3.5 2.25 6 2.25ZM1.58 6C2.41 7.68 4.12 8.75 6 8.75C7.87 8.75 9.58 7.68 10.41 6C9.58 4.31 7.87 3.25 6 3.25C4.12 3.25 2.41 4.31 1.58 6Z" fill="#3A3A3A" fill-opacity="1.000000" fill-rule="nonzero"/>
	</g>
</svg>
