<svg width="12.000000" height="12.000000" viewBox="0 0 12 12" fill="none" xmlns="http://www.w3.org/2000/svg" xmlns:xlink="http://www.w3.org/1999/xlink">
	<desc>
			Created with Pixso.
	</desc>
	<defs>
		<clipPath id="clip138_2339">
			<rect id="icon / group" width="12.000000" height="12.000000" fill="white" fill-opacity="0"/>
		</clipPath>
	</defs>
	<rect id="icon / group" width="12.000000" height="12.000000" fill="#FFFFFF" fill-opacity="0"/>
	<g clip-path="url(#clip138_2339)">
		<path id="Vector" d="M8 5.5C8.83 5.5 9.49 4.83 9.49 4C9.49 3.16 8.83 2.5 8 2.5C7.16 2.5 6.5 3.16 6.5 4C6.5 4.83 7.16 5.5 8 5.5ZM4 5.5C4.83 5.5 5.49 4.83 5.49 4C5.49 3.16 4.83 2.5 4 2.5C3.16 2.5 2.5 3.16 2.5 4C2.5 4.83 3.16 5.5 4 5.5ZM4 6.5C2.83 6.5 0.5 7.08 0.5 8.25L0.5 9C0.5 9.27 0.72 9.5 1 9.5L7 9.5C7.27 9.5 7.5 9.27 7.5 9L7.5 8.25C7.5 7.08 5.16 6.5 4 6.5ZM8 6.5C7.85 6.5 7.69 6.5 7.51 6.52C7.52 6.52 7.53 6.54 7.53 6.54C8.1 6.95 8.5 7.51 8.5 8.25L8.5 9C8.5 9.17 8.46 9.34 8.41 9.5L11 9.5C11.27 9.5 11.5 9.27 11.5 9L11.5 8.25C11.5 7.08 9.16 6.5 8 6.5Z" fill="#3A3A3A" fill-opacity="1.000000" fill-rule="nonzero"/>
	</g>
</svg>
