<svg width="16.000000" height="16.000000" viewBox="0 0 16 16" fill="none" xmlns="http://www.w3.org/2000/svg" xmlns:xlink="http://www.w3.org/1999/xlink">
	<desc>
			Created with Pixso.
	</desc>
	<defs>
		<clipPath id="clip8_4803">
			<rect id="icon / group" width="16.000000" height="16.000000" fill="white" fill-opacity="0"/>
		</clipPath>
	</defs>
	<rect id="icon / group" width="16.000000" height="16.000000" fill="#FFFFFF" fill-opacity="0"/>
	<g clip-path="url(#clip8_4803)">
		<path id="Vector" d="M10.66 7.33C11.77 7.33 12.65 6.43 12.65 5.33C12.65 4.22 11.77 3.33 10.66 3.33C9.55 3.33 8.66 4.22 8.66 5.33C8.66 6.43 9.55 7.33 10.66 7.33ZM5.33 7.33C6.43 7.33 7.32 6.43 7.32 5.33C7.32 4.22 6.43 3.33 5.33 3.33C4.22 3.33 3.33 4.22 3.33 5.33C3.33 6.43 4.22 7.33 5.33 7.33ZM5.33 8.66C3.77 8.66 0.66 9.44 0.66 11L0.66 12C0.66 12.36 0.96 12.66 1.33 12.66L9.33 12.66C9.69 12.66 10 12.36 10 12L10 11C10 9.44 6.88 8.66 5.33 8.66ZM10.66 8.66C10.47 8.66 10.25 8.67 10.02 8.69C10.03 8.7 10.03 8.71 10.04 8.72C10.8 9.28 11.33 10.02 11.33 11L11.33 12C11.33 12.23 11.28 12.46 11.21 12.66L14.66 12.66C15.03 12.66 15.33 12.36 15.33 12L15.33 11C15.33 9.44 12.22 8.66 10.66 8.66Z" fill="#B4B4B4" fill-opacity="1.000000" fill-rule="nonzero"/>
	</g>
</svg>
