<svg width="24.000000" height="24.000000" viewBox="0 0 24 24" fill="none" xmlns="http://www.w3.org/2000/svg" xmlns:xlink="http://www.w3.org/1999/xlink">
	<desc>
			Created with Pixso.
	</desc>
	<defs>
		<clipPath id="clip57_3830">
			<rect id="icon / list setting" width="24.000000" height="24.000000" fill="white" fill-opacity="0"/>
		</clipPath>
	</defs>
	<rect id="icon / list setting" width="24.000000" height="24.000000" fill="#FFFFFF" fill-opacity="0"/>
	<g clip-path="url(#clip57_3830)">
		<path id="Vector" d="M9 22L9 24L7 24L7 22L9 22ZM13 22L13 24L11 24L11 22L13 22ZM17 22L17 24L15 24L15 22L17 22ZM12 15L10 15L10 13L12 13L12 15ZM18 15L14 15L14 13L18 13L18 15ZM8 11L6 11L6 9L8 9L8 11ZM18 11L10 11L10 9L18 9L18 11ZM20 20L4 20C3.46 20 2.96 19.78 2.58 19.41C2.21 19.03 2 18.53 2 18L2 6C2 5.46 2.21 4.96 2.58 4.58C2.96 4.21 3.46 4 4 4L20 4C20.53 4 21.03 4.21 21.41 4.58C21.78 4.96 22 5.46 22 6L22 18C22 18.53 21.78 19.03 21.41 19.41C21.03 19.78 20.53 20 20 20ZM4 6L4 18L20 18L20 6L4 6Z" fill="#3A3A3A" fill-opacity="1.000000" fill-rule="nonzero"/>
	</g>
</svg>
