<svg width="24.000000" height="24.000000" viewBox="0 0 24 24" fill="none" xmlns="http://www.w3.org/2000/svg" xmlns:xlink="http://www.w3.org/1999/xlink">
	<desc>
			Created with Pixso.
	</desc>
	<defs>
		<clipPath id="clip8_4783">
			<rect id="Frame" width="24.000000" height="24.000000" fill="white" fill-opacity="0"/>
		</clipPath>
	</defs>
	<rect id="Frame" width="24.000000" height="24.000000" fill="#FFFFFF" fill-opacity="0"/>
	<g clip-path="url(#clip8_4783)">
		<path id="Vector" d="M21 19L21 5C21 3.89 20.1 3 19 3L5 3C3.9 3 3 3.89 3 5L3 19C3 20.1 3.9 21 5 21L19 21C20.1 21 21 20.1 21 19ZM8.9 13.98L11 16.51L14.1 12.52C14.3 12.26 14.7 12.26 14.9 12.53L18.41 17.2C18.66 17.54 18.42 18.01 18.01 18.01L6.02 18.01C5.59 18.01 5.37 17.53 5.63 17.2L8.12 14C8.31 13.74 8.68 13.73 8.9 13.98Z" fill="#3A3A3A" fill-opacity="1.000000" fill-rule="nonzero"/>
	</g>
</svg>
