<svg width="25.000000" height="25.000000" viewBox="0 0 25 25" fill="none" xmlns="http://www.w3.org/2000/svg" xmlns:xlink="http://www.w3.org/1999/xlink">
	<desc>
			Created with Pixso.
	</desc>
	<defs>
		<clipPath id="clip64_1134">
			<rect id="нумерация" width="25.000000" height="25.000000" fill="white" fill-opacity="0"/>
		</clipPath>
	</defs>
	<rect id="нумерация" width="25.000000" height="25.000000" fill="#FFFFFF" fill-opacity="0"/>
	<g clip-path="url(#clip64_1134)">
		<path id="Vector" d="M9.05 8.52L19.15 8.52C19.62 8.52 20 8.14 20 7.68C20 7.22 19.62 6.84 19.15 6.84L9.05 6.84C8.58 6.84 8.21 7.22 8.21 7.68C8.21 8.14 8.58 8.52 9.05 8.52ZM19.15 16.94L9.05 16.94C8.58 16.94 8.21 17.32 8.21 17.78C8.21 18.25 8.58 18.63 9.05 18.63L19.15 18.63C19.62 18.63 20 18.25 20 17.78C20 17.32 19.62 16.94 19.15 16.94ZM19.15 11.89L9.05 11.89C8.58 11.89 8.21 12.27 8.21 12.73C8.21 13.2 8.58 13.57 9.05 13.57L19.15 13.57C19.62 13.57 20 13.2 20 12.73C20 12.27 19.62 11.89 19.15 11.89ZM6.1 16.1L4.42 16.1C4.18 16.1 4 16.29 4 16.52C4 16.76 4.18 16.94 4.42 16.94L5.68 16.94L5.68 17.36L5.26 17.36C5.02 17.36 4.84 17.55 4.84 17.78C4.84 18.02 5.02 18.21 5.26 18.21L5.68 18.21L5.68 18.63L4.42 18.63C4.18 18.63 4 18.81 4 19.05C4 19.28 4.18 19.47 4.42 19.47L6.1 19.47C6.34 19.47 6.52 19.28 6.52 19.05L6.52 16.52C6.52 16.29 6.34 16.1 6.1 16.1ZM4.42 6.84L4.84 6.84L4.84 8.94C4.84 9.18 5.02 9.36 5.26 9.36C5.49 9.36 5.68 9.18 5.68 8.94L5.68 6.42C5.68 6.18 5.49 6 5.26 6L4.42 6C4.18 6 4 6.18 4 6.42C4 6.65 4.18 6.84 4.42 6.84ZM6.1 11.05L4.42 11.05C4.18 11.05 4 11.23 4 11.47C4 11.7 4.18 11.89 4.42 11.89L5.51 11.89L4.1 13.54C4.03 13.62 4 13.72 4 13.81L4 14C4 14.23 4.18 14.42 4.42 14.42L6.1 14.42C6.34 14.42 6.52 14.23 6.52 14C6.52 13.76 6.34 13.57 6.1 13.57L5.01 13.57L6.42 11.92C6.49 11.85 6.52 11.75 6.52 11.65L6.52 11.47C6.52 11.23 6.34 11.05 6.1 11.05Z" fill="#3A3A3A" fill-opacity="1.000000" fill-rule="nonzero"/>
	</g>
</svg>
