<svg width="24.000000" height="24.000000" viewBox="0 0 24 24" fill="none" xmlns="http://www.w3.org/2000/svg" xmlns:xlink="http://www.w3.org/1999/xlink">
	<desc>
			Created with Pixso.
	</desc>
	<defs>
		<clipPath id="clip8_4786">
			<rect id="Frame" width="24.000000" height="24.000000" fill="white" fill-opacity="0"/>
		</clipPath>
	</defs>
	<rect id="Frame" width="24.000000" height="24.000000" fill="#FFFFFF" fill-opacity="0"/>
	<g clip-path="url(#clip8_4786)">
		<path id="Vector" d="M3.9 12C3.9 10.29 5.28 8.89 7 8.89L11 8.89L11 7L7 7C4.23 7 2 9.23 2 12C2 14.76 4.23 17 7 17L11 17L11 15.1L7 15.1C5.28 15.1 3.9 13.71 3.9 12ZM8 13L16 13L16 11L8 11L8 13ZM17 7L13 7L13 8.89L17 8.89C18.7 8.89 20.1 10.29 20.1 12C20.1 13.71 18.7 15.1 17 15.1L13 15.1L13 17L17 17C19.76 17 22 14.76 22 12C22 9.23 19.76 7 17 7Z" fill="#3A3A3A" fill-opacity="1.000000" fill-rule="nonzero"/>
	</g>
</svg>
