<svg width="24.000000" height="24.000000" viewBox="0 0 24 24" fill="none" xmlns="http://www.w3.org/2000/svg" xmlns:xlink="http://www.w3.org/1999/xlink">
	<desc>
			Created with Pixso.
	</desc>
	<defs>
		<clipPath id="clip103_6505">
			<rect id="icon / print" width="24.000000" height="24.000000" fill="white" fill-opacity="0"/>
		</clipPath>
	</defs>
	<rect id="icon / print" width="24.000000" height="24.000000" fill="#FFFFFF" fill-opacity="0"/>
	<g clip-path="url(#clip103_6505)">
		<path id="Vector" d="M19 8L5 8C3.33 8 2 9.34 2 11L2 17L6 17L6 21L18 21L18 17L22 17L22 11C22 9.34 20.66 8 19 8ZM16 19L8 19L8 14L16 14L16 19ZM19 12C18.45 12 18 11.55 18 11C18 10.45 18.45 10 19 10C19.54 10 20 10.45 20 11C20 11.55 19.54 12 19 12ZM18 3L6 3L6 7L18 7L18 3Z" fill="#3A3A3A" fill-opacity="1.000000" fill-rule="nonzero"/>
	</g>
</svg>
