<svg width="25.000000" height="25.000000" viewBox="0 0 25 25" fill="none" xmlns="http://www.w3.org/2000/svg" xmlns:xlink="http://www.w3.org/1999/xlink">
	<desc>
			Created with Pixso.
	</desc>
	<defs/>
	<rect id="icon / share" width="25.000000" height="25.000000" fill="#FFFFFF" fill-opacity="0"/>
	<path id="Vector" d="M16 14.38C15.49 14.38 15.04 14.58 14.69 14.9L9.93 12.13C9.97 11.98 10 11.82 10 11.66C10 11.5 9.97 11.35 9.93 11.2L14.64 8.45C15 8.79 15.47 9 16 9C17.1 9 18 8.1 18 7C18 5.89 17.1 5 16 5C14.89 5 14 5.89 14 7C14 7.16 14.02 7.31 14.06 7.46L9.35 10.2C9 9.87 8.52 9.66 8 9.66C6.89 9.66 6 10.56 6 11.66C6 12.77 6.89 13.66 8 13.66C8.52 13.66 9 13.46 9.35 13.12L14.1 15.9C14.07 16.04 14.05 16.18 14.05 16.33C14.05 17.4 14.92 18.28 16 18.28C17.07 18.28 17.94 17.4 17.94 16.33C17.94 15.26 17.07 14.38 16 14.38Z" fill="#3A3A3A" fill-opacity="1.000000" fill-rule="nonzero"/>
</svg>
