<svg width="18.000000" height="18.000000" viewBox="0 0 18 18" fill="none" xmlns="http://www.w3.org/2000/svg" xmlns:xlink="http://www.w3.org/1999/xlink">
	<desc>
			Created with Pixso.
	</desc>
	<defs>
		<clipPath id="clip74_6466">
			<rect id="progress / run" width="18.000000" height="18.000000" fill="white" fill-opacity="0"/>
		</clipPath>
	</defs>
	<rect id="progress / run" width="18.000000" height="18.000000" fill="#FFFFFF" fill-opacity="0"/>
	<g clip-path="url(#clip74_6466)">
		<path id="Vector" d="M9.75 1.52L9.75 1.53L9.75 3.03C13.04 3.44 15.37 6.43 14.97 9.72C14.62 12.45 12.48 14.62 9.75 14.94L9.75 16.44C13.87 16.03 16.87 12.37 16.46 8.25C16.12 4.68 13.29 1.87 9.75 1.52ZM8.25 1.54C6.78 1.68 5.39 2.25 4.25 3.19L5.32 4.3C6.16 3.62 7.17 3.19 8.25 3.04L8.25 1.54ZM3.19 4.25C2.25 5.39 1.68 6.78 1.53 8.25L3.03 8.25C3.17 7.18 3.59 6.17 4.26 5.32L3.19 4.25ZM1.54 9.75C1.69 11.21 2.27 12.6 3.2 13.74L4.26 12.67C3.6 11.82 3.17 10.81 3.04 9.75L1.54 9.75ZM5.32 13.77L4.25 14.8C5.38 15.75 6.78 16.34 8.25 16.5L8.25 15C7.18 14.86 6.17 14.43 5.32 13.77ZM9.37 5.25L9.37 9.18L12.75 11.19L12.18 12.11L8.25 9.75L8.25 5.25L9.37 5.25Z" fill="#3A3A3A" fill-opacity="1.000000" fill-rule="nonzero"/>
	</g>
</svg>
